<?xml version="1.0" encoding="utf-8"?>
<!-- Generator: Adobe Illustrator 28.3.0, SVG Export Plug-In . SVG Version: 6.00 Build 0)  -->
<svg version="1.1" id="Layer_1" xmlns="http://www.w3.org/2000/svg" xmlns:xlink="http://www.w3.org/1999/xlink" x="0px" y="0px"
	 width="87.9px" height="40px" viewBox="0 0 87.9 40" style="enable-background:new 0 0 87.9 40;" xml:space="preserve">
<style type="text/css">
	.st0{fill:#EA1D25;}
	.st1{fill:#010101;}
</style>
<g id="Right_Box">
	<path class="st0" d="M40,2v36c0,1.1-0.9,2-2,2H2c-1.1,0-2-0.9-2-2V24c0-3.3,2.7-6,6-6h15.2l-2.6-2.6c-0.8-0.8-0.7-2.1,0-2.8
		c0.8-0.7,2-0.7,2.8,0l6,6c0.8,0.8,0.8,2,0,2.8c0,0,0,0,0,0l-6,6c-0.8,0.8-2.1,0.7-2.8,0c-0.7-0.8-0.7-2,0-2.8l2.6-2.6H6
		c-1.1,0-2,0.9-2,2v12h32V4H4v10c0,1.1-0.9,2-2,2s-2-0.9-2-2V2c0-1.1,0.9-2,2-2h36C39.1,0,40,0.9,40,2z"/>
</g>
<g>
	<path class="st1" d="M60.5,21.7V9.2h5.1v21.7h-4.9V27h-0.2c-0.5,1.2-1.3,2.2-2.4,3c-1.1,0.8-2.5,1.2-4.1,1.2c-1.4,0-2.7-0.3-3.8-1
		c-1.1-0.6-1.9-1.6-2.5-2.8c-0.6-1.2-0.9-2.7-0.9-4.4V9.2h5.1v13c0,1.4,0.4,2.5,1.1,3.3c0.8,0.8,1.7,1.2,3,1.2
		c0.8,0,1.5-0.2,2.2-0.5s1.3-0.9,1.7-1.6S60.5,22.8,60.5,21.7z"/>
	<path class="st1" d="M74,18.1v12.7h-5.1V9.2h4.9v3.7H74c0.5-1.2,1.3-2.2,2.4-2.9c1.1-0.7,2.5-1.1,4.1-1.1c1.5,0,2.8,0.3,3.9,1
		c1.1,0.6,2,1.6,2.6,2.8c0.6,1.2,0.9,2.7,0.9,4.4v13.8h-5.1v-13c0-1.4-0.4-2.6-1.1-3.4c-0.7-0.8-1.8-1.2-3.1-1.2
		c-0.9,0-1.7,0.2-2.4,0.6c-0.7,0.4-1.2,1-1.6,1.7C74.2,16.2,74,17.1,74,18.1z"/>
</g>
</svg>
